<?xml version="1.0" standalone="no"?><!DOCTYPE svg PUBLIC "-//W3C//DTD SVG 1.1//EN" "http://www.w3.org/Graphics/SVG/1.1/DTD/svg11.dtd"><svg class="icon" height="512" viewBox="0 0 1024 1024" version="1.1" xmlns="http://www.w3.org/2000/svg"><path d="M990.122667 516.266667c-112.298667 8.597333-426.069333 33.685333-426.069334 33.685333-5.290667-30.378667 5.269333-97.109333 5.269334-97.109333 189.589333 29.717333 381.824 40.96 420.138666 39.616l0.661334-73.962667c-211.392-11.221333-393.045333-134.741333-393.045334-134.741333-101.056-78.634667-216.661333-61.44-216.661333-61.44-46.250667 1.962667-92.501333 17.834667-129.472 49.557333-49.557333 41.621333-94.464 97.770667-132.778667 151.936-45.589333 64.064-64.746667 133.418667-25.749333 207.402667 12.565333 23.786667 29.056 45.610667 46.250667 64.746666 3.968 4.629333 18.496 24.448 25.088 24.448-29.717333 16.512-73.984 42.261333-112.298667 70.037334h88.512s57.472-37.674667 115.605333-68.053334c38.293333 0.661333 81.898667 1.322667 118.229334 2.666667-25.088 16.512-78.613333 50.88-118.229334 83.242667h87.850667s165.162667-106.346667 301.888-130.176l-13.866667 2.026666c273.493333-67.370667 358.698667-71.36 358.698667-71.36V516.266667h-0.021333z m-827.712 15.872c-30.357333 0-54.826667-13.888-54.826667-31.061334 0-17.194667 24.448-31.04 54.826667-31.04s54.826667 13.845333 54.826666 31.04c0.021333 17.173333-24.426667 31.061333-54.826666 31.061334z m155.904-166.464l-110.954667-5.312s50.176-66.048 66.048-70.016l68.032 1.301333-23.125333 74.026667z m49.557333-72.021334l95.765333 2.645334 0.661334 74.666666-114.922667-3.989333 18.496-73.322667z m-3.306667 207.424c0-17.194667 24.426667-31.04 54.826667-31.04 30.378667 0 54.826667 13.845333 54.826667 31.04 0 17.173333-24.448 31.061333-54.826667 31.061334-30.4 0-54.826667-13.888-54.826667-31.061334z" /></svg>